<svg width="74" height="75" viewBox="0 0 74 75" fill="none" xmlns="http://www.w3.org/2000/svg">
<rect y="0.624023" width="74" height="74" rx="10" fill="#8969E2" fill-opacity="0.1"/>
<path d="M55.9999 31.686V23.287C55.9999 20.6785 54.8159 19.624 51.8744 19.624H44.4004C41.4589 19.624 40.2749 20.6785 40.2749 23.287V31.6675C40.2749 34.2945 41.4589 35.3305 44.4004 35.3305H51.8744C54.8159 35.349 55.9999 34.2945 55.9999 31.686Z" fill="#8969E2"/>
<path d="M55.9999 52.4984V45.0244C55.9999 42.0829 54.8159 40.8989 51.8744 40.8989H44.4004C41.4589 40.8989 40.2749 42.0829 40.2749 45.0244V52.4984C40.2749 55.4399 41.4589 56.6239 44.4004 56.6239H51.8744C54.8159 56.6239 55.9999 55.4399 55.9999 52.4984Z" fill="#8969E2"/>
<path d="M34.725 31.686V23.287C34.725 20.6785 33.541 19.624 30.5995 19.624H23.1255C20.184 19.624 19 20.6785 19 23.287V31.6675C19 34.2945 20.184 35.3305 23.1255 35.3305H30.5995C33.541 35.349 34.725 34.2945 34.725 31.686Z" fill="#8969E2"/>
<path d="M34.725 52.4984V45.0244C34.725 42.0829 33.541 40.8989 30.5995 40.8989H23.1255C20.184 40.8989 19 42.0829 19 45.0244V52.4984C19 55.4399 20.184 56.6239 23.1255 56.6239H30.5995C33.541 56.6239 34.725 55.4399 34.725 52.4984Z" fill="#8969E2"/>
</svg>
