<svg width="74" height="75" viewBox="0 0 74 75" fill="none" xmlns="http://www.w3.org/2000/svg">
<rect y="0.624023" width="74" height="74" rx="10" fill="#1FA0A7" fill-opacity="0.1"/>
<path d="M46.6667 36.4157V39.499H52.8333V36.4157H46.6667ZM43.5833 46.6061C45.0633 47.7007 46.9904 49.1499 48.5167 50.2907C49.1333 49.4736 49.75 48.6411 50.3667 47.824C48.8404 46.6832 46.9133 45.234 45.4333 44.124C44.8167 44.9565 44.2 45.789 43.5833 46.6061ZM50.3667 28.0907C49.75 27.2736 49.1333 26.4411 48.5167 25.624C46.9904 26.7649 45.0633 28.214 43.5833 29.324C44.2 30.1411 44.8167 30.9736 45.4333 31.7907C46.9133 30.6807 48.8404 29.2469 50.3667 28.0907ZM25.0833 33.3324C23.3875 33.3324 22 34.7199 22 36.4157V39.499C22 41.1949 23.3875 42.5824 25.0833 42.5824H26.625V48.749H29.7083V42.5824H31.25L38.9583 47.2074V28.7074L31.25 33.3324H25.0833ZM42.8125 37.9574C42.8125 35.9069 41.9183 34.0569 40.5 32.7928V43.1065C41.9183 41.8578 42.8125 40.0078 42.8125 37.9574Z" fill="#259EA4"/>
</svg>
