<svg width="74" height="75" viewBox="0 0 74 75" fill="none" xmlns="http://www.w3.org/2000/svg">
<rect y="0.624023" width="74" height="74" rx="10" fill="#FF9900" fill-opacity="0.1"/>
<path d="M33.7188 35.16C33.7188 35.9925 33.95 36.1159 34.4742 36.3009L35.2604 36.5784V33.9575H34.7979C34.2121 33.9575 33.7188 34.4971 33.7188 35.16Z" fill="#FF9900"/>
<path d="M37.5732 42.4367H38.0357C38.637 42.4367 39.1149 41.8972 39.1149 41.2343C39.1149 40.4018 38.8837 40.2784 38.3595 40.0934L37.5732 39.8159V42.4367Z" fill="#FF9900"/>
<path d="M48.1025 28.1453L44.9421 31.3057C44.7108 31.5369 44.4179 31.6449 44.125 31.6449C43.8321 31.6449 43.5392 31.5369 43.3079 31.3057C43.0929 31.0881 42.9723 30.7945 42.9723 30.4886C42.9723 30.1827 43.0929 29.8891 43.3079 29.6715L46.4683 26.5111C43.755 24.1986 40.2554 22.7803 36.4167 22.7803C27.9067 22.7803 21 29.6869 21 38.1969C21 46.7069 27.9067 53.6136 36.4167 53.6136C44.9267 53.6136 51.8333 46.7069 51.8333 38.1969C51.8333 34.3582 50.415 30.8586 48.1025 28.1453ZM39.1146 37.9194C40.1013 38.274 41.4271 38.9832 41.4271 41.2494C41.4271 43.1765 39.9008 44.7644 38.0354 44.7644H37.5729V45.1499C37.5729 45.7819 37.0487 46.3061 36.4167 46.3061C35.7846 46.3061 35.2604 45.7819 35.2604 45.1499V44.7644H35.1371C33.0867 44.7644 31.4063 43.0378 31.4063 40.9103C31.4063 40.2628 31.9304 39.7386 32.5625 39.7386C33.1946 39.7386 33.7188 40.2628 33.7188 40.8949C33.7188 41.7428 34.3508 42.4365 35.1371 42.4365H35.2604V39.014L33.7188 38.4744C32.7321 38.1199 31.4063 37.4107 31.4063 35.1444C31.4063 33.2174 32.9325 31.6294 34.7979 31.6294H35.2604V31.2594C35.2604 30.6274 35.7846 30.1032 36.4167 30.1032C37.0487 30.1032 37.5729 30.6274 37.5729 31.2594V31.6449H37.6963C39.7467 31.6449 41.4271 33.3715 41.4271 35.499C41.4271 36.1311 40.9029 36.6553 40.2708 36.6553C39.6388 36.6553 39.1146 36.1311 39.1146 35.499C39.1146 34.6511 38.4825 33.9574 37.6963 33.9574H37.5729V37.3799L39.1146 37.9194Z" fill="#FF9900"/>
<path d="M52.8969 22.3332C52.775 22.0493 52.5487 21.823 52.2648 21.7011C52.1262 21.6519 51.9803 21.6258 51.8332 21.624H45.6665C45.0344 21.624 44.5103 22.1482 44.5103 22.7803C44.5103 23.4124 45.0344 23.9365 45.6665 23.9365H49.0428L46.4682 26.5111C47.054 27.0199 47.5936 27.5594 48.1023 28.1453L50.6769 25.5707V28.9469C50.6769 29.579 51.2011 30.1032 51.8332 30.1032C52.4653 30.1032 52.9894 29.579 52.9894 28.9469V22.7803C52.9894 22.6261 52.9586 22.4874 52.8969 22.3332Z" fill="#FF9900"/>
</svg>
