<svg width="74" height="75" viewBox="0 0 74 75" fill="none" xmlns="http://www.w3.org/2000/svg">
<rect y="0.624023" width="74" height="74" rx="10" fill="#3491E6" fill-opacity="0.1"/>
<path d="M43.3114 33.1865C42.6793 33.1865 42.1551 32.6624 42.1551 32.0303V26.6344C42.1551 24.9694 41.1222 23.9365 39.4572 23.9365H34.8322C33.1672 23.9365 32.1343 24.9694 32.1343 26.6344V32.0303C32.1343 32.6624 31.6101 33.1865 30.978 33.1865C30.3459 33.1865 29.8218 32.6624 29.8218 32.0303V26.6344C29.8218 23.6899 31.8876 21.624 34.8322 21.624H39.4572C42.4018 21.624 44.4676 23.6899 44.4676 26.6344V32.0303C44.4676 32.6624 43.9434 33.1865 43.3114 33.1865Z" fill="#3491E6"/>
<path d="M30.9779 47.1078C30.6713 47.1078 30.3772 46.986 30.1603 46.7691C29.9435 46.5523 29.8217 46.2582 29.8217 45.9515C29.8217 45.6449 29.9435 45.3508 30.1603 45.1339C30.3772 44.9171 30.6713 44.7953 30.9779 44.7953H49.1079C49.5704 44.7953 49.925 44.3944 49.8787 43.9319L48.8304 35.1599C48.4604 32.169 47.9362 29.7178 42.6946 29.7178H31.5946C26.3529 29.7178 25.8287 32.169 25.4742 35.1599L24.0867 46.7224C23.6396 50.5149 24.8112 53.6136 30.2225 53.6136H44.0667C48.9383 53.6136 50.3721 51.1007 50.295 47.8324C50.287 47.6347 50.2017 47.4481 50.0576 47.3126C49.9135 47.1771 49.7219 47.1036 49.5242 47.1078H30.9779Z" fill="#3491E6"/>
</svg>
