<svg width="20" height="20" viewBox="0 0 20 20" fill="none" xmlns="http://www.w3.org/2000/svg">
<path d="M10 20C15.523 20 20 15.523 20 10C20 4.477 15.523 0 10 0C4.477 0 0 4.477 0 10C0 15.523 4.477 20 10 20Z" fill="white"/>
<path d="M10.3301 15.4501C10.1501 15.5101 9.8401 15.5101 9.6601 15.4501C8.1001 14.9201 4.6001 12.6901 4.6001 8.91014C4.6001 7.24014 5.9401 5.89014 7.6001 5.89014C8.5801 5.89014 9.4501 6.36014 10.0001 7.10014C10.5401 6.37014 11.4201 5.89014 12.4001 5.89014C14.0601 5.89014 15.4001 7.24014 15.4001 8.91014C15.4001 12.6901 11.9001 14.9201 10.3301 15.4501Z" fill="#3EB489"/>
</svg>
