<svg width="24" height="24" viewBox="0 0 24 24" fill="none" xmlns="http://www.w3.org/2000/svg">
<path d="M12.1601 10.8702C12.0601 10.8602 11.9401 10.8602 11.8301 10.8702C10.6823 10.8313 9.59472 10.3471 8.79771 9.52019C8.00069 8.69332 7.55682 7.58869 7.56008 6.44023C7.56008 3.99023 9.54008 2.00023 12.0001 2.00023C12.5825 1.98973 13.1613 2.09404 13.7034 2.30721C14.2455 2.52039 14.7403 2.83825 15.1595 3.24265C15.5788 3.64705 15.9143 4.13006 16.1469 4.66412C16.3795 5.19818 16.5046 5.77282 16.5151 6.35523C16.5256 6.93765 16.4213 7.51642 16.2081 8.05852C15.9949 8.60062 15.6771 9.09543 15.2727 9.51468C14.8683 9.93394 14.3852 10.2694 13.8512 10.502C13.3171 10.7346 12.7425 10.8597 12.1601 10.8702V10.8702Z" stroke="#292D32" stroke-width="1.5" stroke-linecap="round" stroke-linejoin="round"/>
<path d="M7.15997 14.56C4.73997 16.18 4.73997 18.82 7.15997 20.43C9.90997 22.27 14.42 22.27 17.17 20.43C19.59 18.81 19.59 16.17 17.17 14.56C14.43 12.73 9.91997 12.73 7.15997 14.56V14.56Z" stroke="#292D32" stroke-width="1.5" stroke-linecap="round" stroke-linejoin="round"/>
</svg>
