<svg width="24" height="24" viewBox="0 0 24 24" fill="none" xmlns="http://www.w3.org/2000/svg">
<path d="M11.1471 4.86404L11.7493 5.67781L12.3524 4.86473C13.3043 3.58138 14.8273 2.75 16.523 2.75C19.3995 2.75 21.75 5.11528 21.75 8.06107C21.75 9.2705 21.5588 10.386 21.2268 11.4209L21.2253 11.4258C20.429 13.9674 18.7949 16.0223 17.0221 17.5591C15.2458 19.0989 13.3725 20.0814 12.173 20.493L12.173 20.493L12.165 20.4958C12.0881 20.5232 11.9377 20.55 11.75 20.55C11.5623 20.55 11.4119 20.5232 11.335 20.4958L11.335 20.4958L11.327 20.493C10.1275 20.0814 8.25421 19.0989 6.47791 17.5591C4.70512 16.0223 3.071 13.9674 2.2747 11.4258L2.27471 11.4258L2.27316 11.4209C1.94119 10.386 1.75 9.2705 1.75 8.06107C1.75 5.11544 4.10024 2.75026 6.97652 2.75C7.78586 2.7511 8.58406 2.94242 9.30787 3.30909C10.0318 3.67584 10.6617 4.20808 11.1471 4.86404Z" stroke="black" stroke-width="1.5"/>
</svg>
