<svg width="25" height="25" viewBox="0 0 25 25" fill="none" xmlns="http://www.w3.org/2000/svg">
<path d="M22.9387 7.0816H16.9211" stroke="#3EB489" stroke-width="1.5" stroke-miterlimit="10" stroke-linecap="round" stroke-linejoin="round"/>
<path d="M6.89182 7.0816H2.88013" stroke="#3EB489" stroke-width="1.5" stroke-miterlimit="10" stroke-linecap="round" stroke-linejoin="round"/>
<path d="M10.9035 10.5245C11.3645 10.5245 11.8209 10.4354 12.2468 10.2624C12.6727 10.0894 13.0597 9.83582 13.3856 9.51615C13.7116 9.19647 13.9701 8.81696 14.1465 8.39928C14.3229 7.9816 14.4137 7.53394 14.4137 7.08184C14.4137 6.62975 14.3229 6.18209 14.1465 5.76441C13.9701 5.34673 13.7116 4.96722 13.3856 4.64754C13.0597 4.32787 12.6727 4.07428 12.2468 3.90128C11.8209 3.72827 11.3645 3.63922 10.9035 3.63922C9.97254 3.63922 9.0797 4.00193 8.4214 4.64754C7.76311 5.29316 7.39328 6.1688 7.39328 7.08184C7.39328 7.99488 7.76311 8.87053 8.4214 9.51615C9.0797 10.1618 9.97254 10.5245 10.9035 10.5245V10.5245Z" stroke="#3EB489" stroke-width="1.5" stroke-miterlimit="10" stroke-linecap="round" stroke-linejoin="round"/>
<path d="M22.9387 17.9014H18.927" stroke="#3EB489" stroke-width="1.5" stroke-miterlimit="10" stroke-linecap="round" stroke-linejoin="round"/>
<path d="M8.89767 17.9015H2.88013" stroke="#3EB489" stroke-width="1.5" stroke-miterlimit="10" stroke-linecap="round" stroke-linejoin="round"/>
<path d="M14.9153 21.3443C15.8462 21.3443 16.7391 20.9816 17.3974 20.336C18.0557 19.6904 18.4255 18.8147 18.4255 17.9017C18.4255 16.9886 18.0557 16.113 17.3974 15.4674C16.7391 14.8217 15.8462 14.459 14.9153 14.459C13.9843 14.459 13.0914 14.8217 12.4332 15.4674C11.7749 16.113 11.405 16.9886 11.405 17.9017C11.405 18.8147 11.7749 19.6904 12.4332 20.336C13.0914 20.9816 13.9843 21.3443 14.9153 21.3443V21.3443Z" stroke="#3EB489" stroke-width="1.5" stroke-miterlimit="10" stroke-linecap="round" stroke-linejoin="round"/>
</svg>
