<svg width="25" height="25" viewBox="0 0 25 25" fill="none" xmlns="http://www.w3.org/2000/svg">
<path d="M11.5746 22.082C5.90805 22.082 1.2946 17.5574 1.2946 12C1.2946 6.44265 5.90805 1.91806 11.5746 1.91806C17.2411 1.91806 21.8545 6.44265 21.8545 12C21.8545 17.5574 17.2411 22.082 11.5746 22.082ZM11.5746 3.39347C6.73045 3.39347 2.79899 7.25904 2.79899 12C2.79899 16.741 6.73045 20.6066 11.5746 20.6066C16.4187 20.6066 20.3502 16.741 20.3502 12C20.3502 7.25904 16.4187 3.39347 11.5746 3.39347Z" fill="#292D32"/>
<path d="M22.1053 23.0657C21.9147 23.0657 21.7242 22.9969 21.5737 22.8494L19.5679 20.8821C19.428 20.7433 19.3495 20.556 19.3495 20.3608C19.3495 20.1656 19.428 19.9783 19.5679 19.8395C19.8587 19.5543 20.3401 19.5543 20.631 19.8395L22.6368 21.8067C22.9277 22.092 22.9277 22.5641 22.6368 22.8494C22.4864 22.9969 22.2958 23.0657 22.1053 23.0657Z" fill="#292D32"/>
</svg>
