<svg width="342" height="299" viewBox="0 0 342 299" fill="none" xmlns="http://www.w3.org/2000/svg">
<ellipse opacity="0.3" cx="171" cy="269.558" rx="171" ry="28.6764" fill="#92E3A9"/>
<path d="M302.973 119.198C302.973 119.198 302.973 115.663 298.015 110.72C293.057 105.777 289.865 102.947 289.865 102.947C289.865 102.947 287.386 111.072 291.991 116.022C295.378 119.5 299.052 122.689 302.973 125.556V119.198Z" fill="#92E3A9"/>
<path d="M295.775 141.26C295.775 141.26 295.775 137.726 290.817 132.783C285.86 127.839 282.668 125.009 282.668 125.009C282.668 125.009 280.189 133.135 284.794 138.078C288.18 141.559 291.853 144.751 295.775 147.619V141.26Z" fill="#92E3A9"/>
<path d="M302.683 125.216C302.683 125.216 303.055 121.7 308.511 117.304C313.967 112.908 317.436 110.436 317.436 110.436C317.436 110.436 319.045 118.776 313.942 123.21C310.205 126.313 306.212 129.099 302.008 131.536L302.683 125.216Z" fill="#92E3A9"/>
<path d="M293.965 151.265C293.965 151.265 294.709 147.819 300.601 144.046C306.492 140.272 310.201 138.146 310.201 138.146C310.201 138.146 310.914 146.611 305.376 150.486C301.331 153.18 297.067 155.532 292.628 157.517L293.965 151.265Z" fill="#92E3A9"/>
<path d="M295.599 179.673C295.599 179.673 295.599 176.139 300.563 171.196C305.527 166.253 308.713 163.422 308.713 163.422C308.713 163.422 311.192 171.548 306.587 176.491C303.198 179.972 299.522 183.163 295.599 186.032V179.673Z" fill="#92E3A9"/>
<path d="M295.517 186.605C295.517 186.605 296.022 183.108 291.821 177.511C287.62 171.914 284.882 168.668 284.882 168.668C284.882 168.668 281.274 176.354 285.128 181.875C287.984 185.801 291.166 189.481 294.64 192.875L295.517 186.605Z" fill="#92E3A9"/>
<path d="M290.628 207.157C290.628 207.157 290.628 203.623 295.586 198.679C300.544 193.736 303.736 190.906 303.736 190.906C303.736 190.906 306.215 199.032 301.61 203.975C298.222 207.454 294.549 210.645 290.628 213.515V207.157Z" fill="#92E3A9"/>
<path d="M293.94 225.805C293.94 225.805 293.044 222.384 296.583 216.371C300.122 210.359 302.493 206.793 302.493 206.793C302.493 206.793 306.959 214.025 303.755 220C301.361 224.221 298.618 228.234 295.555 232L293.94 225.805Z" fill="#92E3A9"/>
<path d="M303.427 118.292C303.17 121.97 302.711 125.632 302.052 129.26C300.09 139.361 295.189 145.876 293.221 155.002C291.253 164.127 296.892 175.875 295.384 187.592C293.877 199.308 289.304 205.83 290.609 213.648C291.915 221.465 298.778 242.641 298.778 242.641" stroke="#263238" stroke-linecap="round" stroke-linejoin="round"/>
<path d="M302.613 127.562L307.962 123.474" stroke="#263238" stroke-linecap="round" stroke-linejoin="round"/>
<path d="M302.865 122.852L300.626 118.884" stroke="#263238" stroke-linecap="round" stroke-linejoin="round"/>
<path d="M293.542 154.581C293.542 154.581 298.015 151.235 302.613 147.889" stroke="#263238" stroke-linecap="round" stroke-linejoin="round"/>
<path d="M295.776 147.618C295.776 147.618 292.048 140.329 287.821 135.492" stroke="#263238" stroke-linecap="round" stroke-linejoin="round"/>
<path d="M295.776 184.699C298.331 180.004 301.556 175.703 305.351 171.932" stroke="#263238" stroke-linecap="round" stroke-linejoin="round"/>
<path d="M294.905 189.654C293.551 186.469 291.933 183.402 290.067 180.485C287.456 176.642 287.084 176.145 287.084 176.145" stroke="#263238" stroke-linecap="round" stroke-linejoin="round"/>
<path d="M290.628 213.648C291.76 210.84 293.108 208.124 294.659 205.523C296.208 203.11 297.955 200.83 299.882 198.705" stroke="#263238" stroke-linecap="round" stroke-linejoin="round"/>
<path d="M295.555 231.936C295.555 231.936 295.031 227.704 296.898 224.113C298.766 220.522 300.872 215.805 301.743 213.949" stroke="#263238" stroke-linecap="round" stroke-linejoin="round"/>
<path d="M270.512 166.392C270.512 166.392 270.128 164.172 272.701 160.537C275.275 156.902 276.965 154.782 276.965 154.782C276.965 154.782 279.406 159.606 277.054 163.21C275.309 165.757 273.353 168.153 271.206 170.373L270.512 166.392Z" fill="#92E3A9"/>
<path d="M277.414 179.442C277.414 179.442 277.029 177.228 279.596 173.593C282.163 169.958 283.86 167.838 283.86 167.838C283.86 167.838 286.301 172.662 283.955 176.259C282.208 178.809 280.25 181.207 278.101 183.429L277.414 179.442Z" fill="#92E3A9"/>
<path d="M271.345 170.126C271.345 170.126 270.715 167.963 266.829 165.799C262.943 163.636 260.483 162.46 260.483 162.46C260.483 162.46 260.382 167.862 264.066 170.089C266.748 171.629 269.554 172.944 272.456 174.019L271.345 170.126Z" fill="#92E3A9"/>
<path d="M279.634 185.555C279.634 185.555 278.795 183.473 274.689 181.725C270.582 179.976 268.028 179.064 268.028 179.064C268.028 179.064 268.494 184.448 272.393 186.278C275.221 187.53 278.15 188.544 281.148 189.309L279.634 185.555Z" fill="#92E3A9"/>
<path d="M281.702 203.516C281.702 203.516 281.317 201.296 277.672 198.736C274.026 196.177 271.711 194.743 271.711 194.743C271.711 194.743 271.042 200.107 274.467 202.711C276.973 204.523 279.625 206.126 282.396 207.503L281.702 203.516Z" fill="#92E3A9"/>
<path d="M282.498 207.849C282.498 207.849 281.804 205.71 283.829 201.748C285.854 197.786 287.229 195.459 287.229 195.459C287.229 195.459 290.332 199.862 288.49 203.786C287.128 206.556 285.535 209.207 283.728 211.71L282.498 207.849Z" fill="#92E3A9"/>
<path d="M288.736 225.716C288.736 225.716 288.995 223.484 292.489 220.717C295.984 217.949 298.204 216.371 298.204 216.371C298.204 216.371 299.182 221.685 295.908 224.477C293.515 226.433 290.962 228.185 288.276 229.716L288.736 225.716Z" fill="#92E3A9"/>
<path d="M287.815 220.207C287.815 220.207 287.43 217.993 283.778 215.427C280.126 212.861 277.823 211.44 277.823 211.44C277.823 211.44 277.155 216.798 280.58 219.402C283.083 221.218 285.736 222.821 288.509 224.194L287.815 220.207Z" fill="#92E3A9"/>
<path d="M287.765 232.251C287.765 232.251 287.954 230.006 285.077 226.591C282.201 223.176 280.328 221.22 280.328 221.22C280.328 221.22 278.322 226.251 280.958 229.622C282.92 232.011 285.079 234.233 287.411 236.264L287.765 232.251Z" fill="#92E3A9"/>
<path d="M270.115 165.87C270.672 168.148 271.355 170.395 272.159 172.599C274.493 178.725 278.271 182.278 280.498 187.787C282.724 193.297 280.466 201.271 282.686 208.46C284.907 215.648 288.49 219.233 288.521 224.277C288.553 229.321 286.553 243.346 286.553 243.346" stroke="#263238" stroke-linecap="round" stroke-linejoin="round"/>
<path d="M271.629 171.592L267.832 169.605" stroke="#263238" stroke-linecap="round" stroke-linejoin="round"/>
<path d="M270.96 168.668L271.932 165.939" stroke="#263238" stroke-linecap="round" stroke-linejoin="round"/>
<path d="M280.264 187.553C280.264 187.553 277.11 185.937 273.843 184.34" stroke="#263238" stroke-linecap="round" stroke-linejoin="round"/>
<path d="M278.082 183.428C279.013 180.491 280.243 177.657 281.753 174.97" stroke="#263238" stroke-linecap="round" stroke-linejoin="round"/>
<path d="M282.138 206.686C280.026 204.016 277.535 201.666 274.745 199.711" stroke="#263238" stroke-linecap="round" stroke-linejoin="round"/>
<path d="M283.223 209.698C283.729 207.549 284.412 205.446 285.267 203.409C286.484 200.717 286.667 200.365 286.667 200.365" stroke="#263238" stroke-linecap="round" stroke-linejoin="round"/>
<path d="M288.351 228.106C288.351 228.106 290.874 225.031 292.432 223.88C293.376 223.185 294.262 222.416 295.082 221.578" stroke="#263238" stroke-linecap="round" stroke-linejoin="round"/>
<path d="M288.521 224.276C287.503 222.639 286.363 221.081 285.109 219.616C283.874 218.273 282.53 217.034 281.091 215.912" stroke="#263238" stroke-linecap="round" stroke-linejoin="round"/>
<path d="M287.424 236.282C287.294 234.573 286.708 232.929 285.727 231.521C284.169 229.465 282.334 226.742 281.583 225.672" stroke="#263238" stroke-linecap="round" stroke-linejoin="round"/>
<path d="M302.455 272.583H282.831C282.421 272.583 282.028 272.421 281.739 272.132C281.449 271.843 281.286 271.451 281.286 271.042L276.423 240.899H308.87L304 271.042C304 271.451 303.837 271.843 303.548 272.132C303.258 272.421 302.865 272.583 302.455 272.583Z" fill="#263238" stroke="#263238" stroke-linecap="round" stroke-linejoin="round"/>
<path d="M308.586 245.118H276.416C275.747 245.118 275.105 244.853 274.632 244.381C274.159 243.91 273.893 243.27 273.893 242.603C273.893 241.935 274.159 241.296 274.632 240.824C275.105 240.352 275.747 240.087 276.416 240.087H308.586C309.255 240.087 309.897 240.352 310.37 240.824C310.843 241.296 311.109 241.935 311.109 242.603C311.109 243.27 310.843 243.91 310.37 244.381C309.897 244.853 309.255 245.118 308.586 245.118Z" fill="#263238" stroke="#263238" stroke-linecap="round" stroke-linejoin="round"/>
<path d="M277.698 245.232H301.055" stroke="white" stroke-linecap="round" stroke-linejoin="round"/>
<path d="M303.25 245.232H307.098" stroke="white" stroke-linecap="round" stroke-linejoin="round"/>
<path d="M171.84 98.1777C171.84 98.1777 170.2 99.8128 170.364 101.448C170.528 103.083 184.468 132.359 185.944 134.485C187.42 136.61 191.684 137.265 193.658 136.12C195.633 134.975 203.334 126.799 203.334 126.799L202.95 84.8762C202.95 84.8762 196.118 104.372 194.15 107.517C192.182 110.662 191.192 112.265 191.192 112.265C191.192 112.265 186.776 99.8317 185.616 97.3789C184.804 95.8004 183.55 94.4899 182.008 93.6055L171.84 98.1777Z" fill="#BFBFBF" stroke="#263238" stroke-linecap="round" stroke-linejoin="round"/>
<path d="M206.35 261.651C206.35 261.651 196.503 265.362 192.782 266.683C189.06 268.003 189.281 271.267 189.716 271.921L190.158 272.55H225.393C225.915 270.687 225.837 268.707 225.172 266.89C224.081 263.632 206.35 261.651 206.35 261.651Z" fill="white" stroke="#263238" stroke-linecap="round" stroke-linejoin="round"/>
<path d="M225.727 270.833H189.489C189.467 271.211 189.546 271.588 189.716 271.927L190.157 272.556H225.393C225.574 271.997 225.687 271.419 225.727 270.833Z" fill="white" stroke="#263238" stroke-linecap="round" stroke-linejoin="round"/>
<path d="M198.906 141.869C198.906 141.869 196.503 165.654 196.503 177.874C196.503 190.094 200.881 214.319 202.18 221.741C203.48 229.162 207.857 252.507 207.857 254.249C207.857 255.991 207.857 258.18 206.545 259.054C206.104 259.325 205.747 259.713 205.515 260.176C205.283 260.638 205.186 261.155 205.233 261.67V262.978C205.233 262.978 215.736 268.217 220.334 268.437C222.372 268.598 224.42 268.598 226.459 268.437C226.459 268.437 226.024 258.614 226.024 254.469C226.024 250.325 226.244 220.646 226.459 216.061C226.673 211.477 227.556 178.528 228.433 169.365C229.31 160.201 231.934 144.491 231.934 144.491L199.764 139.252L198.906 141.869Z" fill="#92E3A9" stroke="#263238" stroke-linecap="round" stroke-linejoin="round"/>
<path d="M229.77 261.651C229.77 261.651 219.917 265.362 216.202 266.683C212.487 268.003 212.695 271.267 213.137 271.921L213.572 272.55H248.807C249.329 270.687 249.254 268.708 248.593 266.89C247.495 263.632 229.77 261.651 229.77 261.651Z" fill="white" stroke="#263238" stroke-linecap="round" stroke-linejoin="round"/>
<path d="M249.116 270.833H212.903C212.887 271.211 212.967 271.588 213.137 271.927L213.572 272.556H248.807C248.984 271.997 249.088 271.418 249.116 270.833Z" fill="white" stroke="#263238" stroke-linecap="round" stroke-linejoin="round"/>
<path d="M217.729 144.704C217.729 144.704 217.949 178.093 217.729 187.911C217.508 197.728 223.406 222.608 225.172 228.501C226.938 234.394 229.985 257.305 230.218 258.399C230.451 259.493 226.938 260.581 226.938 262.978C226.938 265.374 236.564 265.38 236.564 265.38C236.564 265.38 245.54 267.996 246.416 267.996C247.315 268.106 248.197 268.328 249.04 268.657C249.921 265.6 250.435 262.45 250.573 259.273C250.61 255.653 250.093 252.047 249.04 248.582C249.04 248.582 250.138 229.381 249.261 218.036C248.384 206.69 245.975 192.942 245.975 188.791C245.975 184.64 248.384 177.012 249.482 168.496C250.58 159.981 251.008 147.547 251.008 144.931C251.008 142.314 218.208 141.66 218.208 141.66L217.729 144.704Z" fill="#92E3A9" stroke="#263238" stroke-linecap="round" stroke-linejoin="round"/>
<path d="M226.049 76.8457C226.049 76.8457 209.851 79.6821 207.006 80.1161C204.161 80.55 202.388 84.9273 201.758 88.6253C201.127 92.3233 197.38 140.561 198.907 141.869C200.433 143.177 241.585 147.529 246.183 147.762C250.782 147.995 252.315 148.202 252.75 144.925C253.185 141.649 259.871 94.8138 261.133 90.5434C263.315 83.1286 243.559 79.223 238.961 78.1539C234.363 77.0847 226.049 76.8457 226.049 76.8457Z" fill="#BFBFBF" stroke="#263238" stroke-linecap="round" stroke-linejoin="round"/>
<path d="M247.804 80.4301C247.804 80.4301 239.825 104.329 238.513 107.832C237.201 111.335 237.195 112.19 237.195 112.19L210.279 106.53C210.279 106.53 213.124 93.002 214.216 89.2915C215.307 85.5809 217.918 78.2666 217.918 78.2666L215.969 78.6C215.969 78.6 209.623 98.895 208.091 104.348C206.558 109.8 199.348 127.253 198.907 132.724C198.465 138.196 196.283 158.472 195.626 172.006C194.97 185.54 195.847 199.716 195.847 199.716C195.847 199.716 221.451 204.514 229.115 204.301C236.778 204.087 241.585 204.081 241.585 204.081C241.585 204.081 240.954 178.113 241.806 169.824C242.657 161.535 245.527 146.252 245.527 146.252L252.529 145.818L252.75 144.944L244.215 144.315C244.215 144.315 239.604 114.159 239.604 113.064V111.341L249.262 81.0338L247.804 80.4301Z" fill="#263238" stroke="#263238" stroke-linecap="round" stroke-linejoin="round"/>
<path d="M258.035 164.377C258.035 164.377 252.989 171.578 252.617 172.78C252.245 173.981 253.418 178.987 253.418 180.584C253.418 182.182 255.424 182.188 255.424 182.188C255.424 182.188 254.421 184.786 255.626 185.792C256.831 186.798 262.047 186.59 263.05 184.785C264.053 182.981 268.096 176.786 268.096 173.78C267.982 171.287 267.646 168.81 267.093 166.377L258.035 164.377Z" fill="#828282" stroke="#263238" stroke-linecap="round" stroke-linejoin="round"/>
<path d="M255.424 182.188C255.424 182.188 257.033 180.786 257.033 178.987C257.033 177.189 258.635 174.182 258.635 174.182" stroke="#263238" stroke-linecap="round" stroke-linejoin="round"/>
<path d="M258.439 159.768C258.237 160.365 256.831 164.573 258.036 165.774C259.24 166.975 266.665 168.17 267.466 167.371C268.267 166.573 269.673 161.969 269.673 161.969L258.439 159.768Z" fill="#BFBFBF" stroke="#263238" stroke-linecap="round" stroke-linejoin="round"/>
<path d="M249.804 113.347L257.834 131.755C257.834 131.755 255.222 157.974 256.629 160.176C258.035 162.377 269.478 163.377 271.484 161.974C273.49 160.572 274.896 155.572 275.697 146.566C276.498 137.56 272.083 112.347 270.878 108.139C269.673 103.932 261.681 87.1275 259.84 85.7313C257.998 84.3352 254.623 84.7251 253.62 85.1024" fill="#BFBFBF"/>
<path d="M249.804 113.347L257.834 131.755C257.834 131.755 255.222 157.974 256.629 160.176C258.035 162.377 269.478 163.377 271.484 161.974C273.49 160.572 274.896 155.572 275.697 146.566C276.498 137.56 272.083 112.347 270.878 108.139C269.673 103.932 261.681 87.1275 259.839 85.7313C257.998 84.3352 254.623 84.7251 253.62 85.1024" stroke="#263238" stroke-linecap="round" stroke-linejoin="round"/>
<path d="M178.955 89.3289C178.955 89.3289 177.145 82.1279 175.542 79.3229C173.94 76.518 163.299 72.7193 162.094 72.7193C160.889 72.7193 161.293 75.323 161.293 77.7506C161.293 80.1782 161.69 84.3542 164.302 87.1529C166.913 89.9515 171.524 91.9578 171.524 91.9578L172.931 95.3602L180.16 91.5552L178.955 89.3289Z" fill="#828282" stroke="#263238" stroke-linecap="round" stroke-linejoin="round"/>
<path d="M174.792 70.0465L175.17 68.3736C175.27 67.9328 175.28 67.4764 175.199 67.0317C175.118 66.587 174.948 66.1631 174.699 65.7855C174.45 65.4079 174.127 65.0844 173.75 64.8342C173.372 64.5841 172.948 64.4125 172.502 64.3297V64.3297C171.753 64.1896 170.978 64.306 170.304 64.6599C169.63 65.0137 169.095 65.5844 168.787 66.2793L153.465 100.958" stroke="#263238" stroke-linecap="round" stroke-linejoin="round"/>
<path d="M137.57 98.5053C137.652 100.593 138.542 102.569 140.053 104.017C141.564 105.465 143.579 106.274 145.675 106.274C147.771 106.274 149.786 105.465 151.297 104.017C152.808 102.569 153.698 100.593 153.781 98.5053H137.57Z" fill="white" stroke="#263238" stroke-linecap="round" stroke-linejoin="round"/>
<path d="M140.194 88.1346C140.276 87.5006 140.43 86.8781 140.654 86.2793" stroke="#263238" stroke-linecap="round" stroke-linejoin="round"/>
<path d="M139.941 97.0267C141.323 96.3538 141.985 94.0017 141.411 92.7375C141.01 91.9221 140.663 91.0818 140.37 90.2219" stroke="#263238" stroke-linecap="round" stroke-linejoin="round"/>
<path d="M144.905 97.0264C146.293 96.3535 146.949 94.0013 146.381 92.7372C145.681 91.1964 145.195 90.165 145.12 89.0204" stroke="#263238" stroke-linecap="round" stroke-linejoin="round"/>
<path d="M150.147 87.751C150.239 87.2498 150.374 86.7574 150.551 86.2793" stroke="#263238" stroke-linecap="round" stroke-linejoin="round"/>
<path d="M149.857 97.0266C151.238 96.3537 151.901 94.0015 151.326 92.7374C150.954 91.9706 150.625 91.1832 150.342 90.379" stroke="#263238" stroke-linecap="round" stroke-linejoin="round"/>
<path d="M163.696 72.7194C163.696 72.7194 158.48 71.5182 158.082 72.5182C157.685 73.5182 157.679 75.5244 158.48 76.1219C159.281 76.7193 164.706 76.9206 165.305 76.7508C165.904 76.581 167.317 73.0779 163.696 72.7194Z" fill="#828282" stroke="#263238" stroke-linecap="round" stroke-linejoin="round"/>
<path d="M164.996 77.4869C164.996 77.4869 159.779 76.2857 159.375 77.2919C158.972 78.2982 158.972 80.2918 159.779 80.8893C160.587 81.4868 165.999 81.6943 166.604 81.5182C167.21 81.3421 168.616 77.8454 164.996 77.4869Z" fill="#828282" stroke="#263238" stroke-linecap="round" stroke-linejoin="round"/>
<path d="M165.488 81.5812C165.488 81.5812 160.139 81.2793 159.912 82.3359C159.685 83.3924 160.025 85.3609 160.921 85.82C161.817 86.2792 167.191 85.5559 167.746 85.254C168.301 84.9522 169.115 81.3233 165.488 81.5812Z" fill="#828282" stroke="#263238" stroke-linecap="round" stroke-linejoin="round"/>
<path d="M166.156 85.8571C166.156 85.8571 161.741 85.6055 161.558 86.486C161.375 87.3664 161.653 89.0016 162.391 89.3664C163.129 89.7312 167.569 89.1463 168.03 88.901C168.49 88.6557 169.153 85.6369 166.156 85.8571Z" fill="#828282" stroke="#263238" stroke-linecap="round" stroke-linejoin="round"/>
<path d="M177.346 84.9267C177.346 84.9267 175.94 77.1219 175.139 75.7257C174.338 74.3295 167.109 70.5183 165.677 69.7196C164.245 68.9209 161.892 67.9209 161.457 69.3171C161.272 69.9593 161.311 70.6449 161.566 71.2625C161.822 71.8802 162.279 72.3936 162.864 72.7195C164.068 73.5245 167.077 74.7195 167.077 75.3232C167.077 75.927 168.686 82.5243 172.124 84.9267" fill="#828282"/>
<path d="M177.346 84.9267C177.346 84.9267 175.94 77.1219 175.139 75.7257C174.338 74.3295 167.109 70.5183 165.677 69.7196C164.245 68.9209 161.892 67.9209 161.457 69.3171C161.272 69.9593 161.311 70.6449 161.566 71.2625C161.822 71.8802 162.279 72.3936 162.864 72.7195C164.068 73.5245 167.077 74.7195 167.077 75.3232C167.077 75.927 168.686 82.5243 172.124 84.9267" stroke="#263238" stroke-linecap="round" stroke-linejoin="round"/>
<path d="M179.712 89.5114C179.712 89.5114 169.708 94.5805 170.364 95.8886C170.833 96.9881 171.164 98.1416 171.348 99.3225C171.348 99.3225 181.844 94.5805 182.008 93.5994C182.172 92.6183 180.86 90.1655 179.712 89.5114Z" fill="#BFBFBF" stroke="#263238" stroke-linecap="round" stroke-linejoin="round"/>
<path d="M222.327 70.9522C222.327 70.9522 221.236 80.7695 221.236 84.9141C221.236 89.0586 222.573 96.2471 230.861 93.4295C239.15 90.612 241.585 80.3356 241.585 78.3356C241.585 76.3357 242.461 61.7512 242.461 61.7512C242.461 61.7512 236.551 68.0844 231.738 69.6063C228.692 70.5484 225.516 71.0026 222.327 70.9522Z" fill="white" stroke="#263238" stroke-linecap="round" stroke-linejoin="round"/>
<path d="M231.738 69.638C228.691 70.5694 225.514 71.013 222.327 70.9524C222.327 70.9524 222.144 72.6127 221.924 74.8516C224.062 75.9963 226.97 76.3547 229.196 76.4742C235.075 76.8076 239.037 71.0907 242.172 66.7512C242.336 63.9652 242.462 61.7828 242.462 61.7828C242.462 61.7828 236.551 68.116 231.738 69.638Z" fill="#263238" stroke="#263238" stroke-linecap="round" stroke-linejoin="round"/>
<path d="M220.119 39.9028C220.119 39.9028 222.674 32.0854 225.532 29.2113C228.389 26.3372 245.306 25.8907 247.647 27.9535C249.987 30.0163 252.062 34.425 252.586 38.0538C253.109 41.6826 248.946 50.0032 248.946 50.0032L220.119 39.9028Z" fill="#263238" stroke="#263238" stroke-linecap="round" stroke-linejoin="round"/>
<path d="M219.482 44.5447C219.482 44.5447 217.514 50.4376 217.729 54.6073C217.943 58.7769 218.826 62.9026 218.826 65.5189C218.826 68.1352 218.391 70.3238 220.794 72.286C222.926 74.0218 226.547 74.4872 229.196 74.6381C235.397 74.984 239.465 68.6006 242.682 64.2107C242.682 64.2107 248.807 63.5818 249.249 60.0662C249.69 56.5506 248.687 54.9532 248.687 54.9532L248.946 50.0288C248.946 50.0288 228.458 39.9662 219.482 44.5447Z" fill="white" stroke="#263238" stroke-linecap="round" stroke-linejoin="round"/>
<path d="M242.247 50.0028C242.247 50.0028 240.929 56.1096 241.806 56.5498C242.683 56.9901 247.281 55.2354 247.483 53.2732C247.685 51.311 245.281 49.7827 242.247 50.0028Z" fill="#263238" stroke="#263238" stroke-linecap="round" stroke-linejoin="round"/>
<path d="M218.543 45.3428C218.543 45.3428 228.679 46.8962 236.734 49.4873C244.789 52.0784 248.688 54.9274 248.688 54.9274C248.688 54.9274 251.286 50.525 251.028 48.1918C250.769 45.8585 239.604 41.714 230.496 39.9027C221.387 38.0914 219.842 38.343 219.066 39.3807C218.29 40.4184 217.243 44.3051 218.543 45.3428Z" fill="#263238" stroke="#263238" stroke-linecap="round" stroke-linejoin="round"/>
<path d="M225.828 50.2169C225.828 50.2169 220.359 59.1663 221.671 60.4745C222.983 61.7826 226.049 62.6568 226.926 62.2228" stroke="#263238" stroke-linecap="round" stroke-linejoin="round"/>
<path d="M221.671 64.4058C221.671 64.4058 233.025 67.6761 235.46 61.5694" stroke="#263238" stroke-linecap="round" stroke-linejoin="round"/>
<path d="M233.707 60.6949L236.993 62.0031" stroke="#263238" stroke-linecap="round" stroke-linejoin="round"/>
<path d="M232.722 53.7076C233.266 53.7076 233.706 52.9755 233.706 52.0724C233.706 51.1693 233.266 50.4373 232.722 50.4373C232.179 50.4373 231.738 51.1693 231.738 52.0724C231.738 52.9755 232.179 53.7076 232.722 53.7076Z" fill="#263238"/>
<path d="M223.967 49.8897C223.967 50.7953 223.526 51.5311 222.983 51.5311C222.441 51.5311 221.999 50.7953 221.999 49.8897C221.999 48.984 222.441 48.2545 222.983 48.2545C223.526 48.2545 223.967 48.9903 223.967 49.8897Z" fill="#263238"/>
<path d="M231.738 46.9472C231.738 46.9472 237.207 47.1673 236.993 51.532" stroke="#263238" stroke-linecap="round" stroke-linejoin="round"/>
<path d="M224.516 45.6381C224.516 45.6381 223.204 44.7639 220.359 47.8204" stroke="#263238" stroke-linecap="round" stroke-linejoin="round"/>
<path d="M145.763 183.749H139.569V272.589H145.763V183.749Z" fill="white" stroke="#263238" stroke-linecap="round" stroke-linejoin="round"/>
<path d="M150.053 183.749H143.858V272.589H150.053V183.749Z" fill="#263238" stroke="#263238" stroke-linecap="round" stroke-linejoin="round"/>
<path d="M175.303 183.749H169.108V272.589H175.303V183.749Z" fill="white" stroke="#263238" stroke-linecap="round" stroke-linejoin="round"/>
<path d="M179.592 183.749H173.398V272.589H179.592V183.749Z" fill="#263238" stroke="#263238" stroke-linecap="round" stroke-linejoin="round"/>
<path d="M241.055 183.749H234.861V272.589H241.055V183.749Z" fill="white" stroke="#263238" stroke-linecap="round" stroke-linejoin="round"/>
<path d="M245.344 183.749H239.15V272.589H245.344V183.749Z" fill="#263238" stroke="#263238" stroke-linecap="round" stroke-linejoin="round"/>
<path d="M270.601 183.749H264.407V272.589H270.601V183.749Z" fill="white" stroke="#263238" stroke-linecap="round" stroke-linejoin="round"/>
<path d="M274.884 183.749H268.689V272.589H274.884V183.749Z" fill="#263238" stroke="#263238" stroke-linecap="round" stroke-linejoin="round"/>
<path d="M281.078 180.422H135.753V188.025H281.078V180.422Z" fill="white" stroke="#263238" stroke-linecap="round" stroke-linejoin="round"/>
<path d="M281.084 180.422H241.534V188.025H281.084V180.422Z" fill="#263238" stroke="#263238" stroke-linecap="round" stroke-linejoin="round"/>
<path d="M283.462 178.523H130.991V182.321H283.462V178.523Z" fill="white" stroke="#263238" stroke-linecap="round" stroke-linejoin="round"/>
<path d="M283.463 178.523H245.345V182.321H283.463V178.523Z" fill="#263238" stroke="#263238" stroke-linecap="round" stroke-linejoin="round"/>
<path d="M197.285 143.335H187.13V139.913H197.285C197.724 139.913 198.144 140.087 198.454 140.396C198.764 140.705 198.938 141.124 198.938 141.561V141.718C198.93 142.15 198.752 142.561 198.443 142.863C198.134 143.166 197.718 143.335 197.285 143.335Z" fill="white" stroke="#263238" stroke-linecap="round" stroke-linejoin="round"/>
<path d="M145.133 133.109H193.072V173.409C193.072 174.744 192.54 176.024 191.594 176.967C190.647 177.911 189.364 178.441 188.025 178.441H150.179C148.84 178.441 147.557 177.911 146.611 176.967C145.664 176.024 145.133 174.744 145.133 173.409V133.109Z" fill="white" stroke="#263238" stroke-linecap="round" stroke-linejoin="round"/>
<path d="M187.338 133.109V173.208C187.338 174.593 186.786 175.92 185.804 176.899C184.822 177.878 183.491 178.428 182.102 178.428H185.988C187.376 178.426 188.707 177.876 189.688 176.897C190.67 175.919 191.222 174.592 191.223 173.208V133.109H187.338Z" fill="#263238" stroke="#263238" stroke-linecap="round" stroke-linejoin="round"/>
<path d="M152.557 133.109V173.208C152.557 176.089 156.751 178.428 159.64 178.428H155.78C154.391 178.428 153.059 177.878 152.076 176.9C151.093 175.921 150.54 174.593 150.538 173.208V133.109H152.557Z" fill="#263238" stroke="#263238" stroke-linecap="round" stroke-linejoin="round"/>
<path d="M192.737 131.442H145.454C144.346 131.442 143.448 132.337 143.448 133.442V133.599C143.448 134.703 144.346 135.599 145.454 135.599H192.737C193.845 135.599 194.743 134.703 194.743 133.599V133.442C194.743 132.337 193.845 131.442 192.737 131.442Z" fill="white" stroke="#263238" stroke-linecap="round" stroke-linejoin="round"/>
<path d="M139.19 139.913H149.346V143.334H139.19C138.752 143.334 138.332 143.161 138.022 142.852C137.712 142.543 137.538 142.123 137.538 141.686V141.529C137.546 141.098 137.724 140.687 138.033 140.384C138.342 140.082 138.758 139.913 139.19 139.913Z" fill="white" stroke="#263238" stroke-linecap="round" stroke-linejoin="round"/>
<path d="M145.095 139.913H155.25V143.334H145.095C144.878 143.334 144.663 143.292 144.462 143.209C144.262 143.126 144.08 143.005 143.926 142.852C143.773 142.699 143.651 142.517 143.568 142.317C143.485 142.117 143.442 141.903 143.442 141.686V141.529C143.45 141.098 143.628 140.687 143.937 140.384C144.246 140.082 144.662 139.913 145.095 139.913Z" fill="white" stroke="#263238" stroke-linecap="round" stroke-linejoin="round"/>
<path d="M192.92 134.133H145.265V134.775H192.92V134.133Z" fill="#263238" stroke="#263238" stroke-linecap="round" stroke-linejoin="round"/>
<path d="M169.834 117.493C168.919 116.379 167.847 115.449 167.847 113.273C167.815 112.129 168.198 111.012 168.925 110.128" stroke="#263238" stroke-linecap="round" stroke-linejoin="round"/>
<path d="M167.847 128.449C167.847 124.675 171.102 124.675 171.102 120.864C171.104 120.41 171.049 119.958 170.938 119.518" stroke="#263238" stroke-linecap="round" stroke-linejoin="round"/>
<path d="M179.572 114.323C179.334 113.68 179.219 112.997 179.233 112.311" stroke="#263238" stroke-linecap="round" stroke-linejoin="round"/>
<path d="M179.233 128.449C179.233 124.418 182.481 124.418 182.481 120.38C182.481 118.129 181.472 117.135 180.589 115.978" stroke="#263238" stroke-linecap="round" stroke-linejoin="round"/>
<path d="M154.84 113.902C154.771 113.535 154.738 113.162 154.739 112.788C154.729 112.146 154.835 111.506 155.054 110.902" stroke="#263238" stroke-linecap="round" stroke-linejoin="round"/>
<path d="M154.739 128.449C154.739 124.537 157.994 124.537 157.994 120.625C157.998 119.905 157.859 119.192 157.585 118.526C157.311 117.86 156.908 117.254 156.398 116.744" stroke="#263238" stroke-linecap="round" stroke-linejoin="round"/>
<path d="M262.899 143.335H252.744V139.913H262.899C263.337 139.913 263.758 140.087 264.068 140.396C264.378 140.705 264.552 141.124 264.552 141.561V141.718C264.543 142.15 264.366 142.561 264.057 142.863C263.748 143.166 263.332 143.335 262.899 143.335Z" fill="white" stroke="#263238" stroke-linecap="round" stroke-linejoin="round"/>
<path d="M210.753 133.109H258.692V173.409C258.692 174.744 258.16 176.024 257.214 176.967C256.267 177.911 254.984 178.441 253.645 178.441H215.799C214.46 178.441 213.177 177.911 212.231 176.967C211.284 176.024 210.753 174.744 210.753 173.409V133.109Z" fill="white" stroke="#263238" stroke-linecap="round" stroke-linejoin="round"/>
<path d="M252.958 133.109V173.208C252.956 174.593 252.403 175.921 251.42 176.9C250.438 177.878 249.105 178.428 247.716 178.428H251.589C252.978 178.428 254.309 177.878 255.291 176.899C256.273 175.92 256.825 174.593 256.825 173.208V133.109H252.958Z" fill="#263238" stroke="#263238" stroke-linecap="round" stroke-linejoin="round"/>
<path d="M218.158 133.109V173.208C218.158 176.089 222.346 178.428 225.241 178.428H221.375C219.987 178.426 218.656 177.876 217.675 176.897C216.693 175.919 216.141 174.592 216.139 173.208V133.109H218.158Z" fill="#263238" stroke="#263238" stroke-linecap="round" stroke-linejoin="round"/>
<path d="M258.351 131.442H211.068C209.96 131.442 209.062 132.337 209.062 133.442V133.599C209.062 134.703 209.96 135.599 211.068 135.599H258.351C259.459 135.599 260.357 134.703 260.357 133.599V133.442C260.357 132.337 259.459 131.442 258.351 131.442Z" fill="white" stroke="#263238" stroke-linecap="round" stroke-linejoin="round"/>
<path d="M204.804 139.913H214.96V143.334H204.804C204.366 143.334 203.945 143.161 203.635 142.852C203.326 142.543 203.151 142.123 203.151 141.686V141.529C203.16 141.098 203.337 140.687 203.646 140.384C203.956 140.082 204.371 139.913 204.804 139.913Z" fill="white" stroke="#263238" stroke-linecap="round" stroke-linejoin="round"/>
<path d="M210.709 139.913H220.864V143.334H210.709C210.27 143.334 209.85 143.161 209.54 142.852C209.23 142.543 209.056 142.123 209.056 141.686V141.529C209.064 141.098 209.242 140.687 209.551 140.384C209.86 140.082 210.276 139.913 210.709 139.913Z" fill="white" stroke="#263238" stroke-linecap="round" stroke-linejoin="round"/>
<path d="M258.54 134.133H210.885V134.775H258.54V134.133Z" fill="#263238" stroke="#263238" stroke-linecap="round" stroke-linejoin="round"/>
<path d="M234.823 123.342H234.747C234.183 123.342 233.725 123.798 233.725 124.361V127.26C233.725 127.823 234.183 128.279 234.747 128.279H234.823C235.387 128.279 235.845 127.823 235.845 127.26V124.361C235.845 123.798 235.387 123.342 234.823 123.342Z" fill="#5C5C5C" stroke="#263238" stroke-linecap="round" stroke-linejoin="round"/>
<path d="M211.144 131.467L213.187 130.046C215.602 128.36 218.478 127.456 221.425 127.455H248.296C252.016 127.455 255.591 128.893 258.269 131.467H211.144Z" fill="#5C5C5C" stroke="#263238" stroke-linecap="round" stroke-linejoin="round"/>
<path d="M88.6335 95.9269C88.6335 95.9269 91.2512 100.398 92.3677 103.002C93.4842 105.606 94.9854 108.964 93.4905 108.216C91.9955 107.467 90.5006 106.543 89.1949 106.543C87.8892 106.543 87.517 108.033 86.9556 106.914C86.3942 105.795 88.6335 95.9269 88.6335 95.9269Z" fill="#92E3A9" stroke="#263238" stroke-linecap="round" stroke-linejoin="round"/>
<path d="M84.7165 256.438C84.7165 256.438 93.6799 261.652 97.0482 262.771C100.417 263.891 102.65 265.916 102.832 267.985L103.022 270.029L102.832 271.519H61.9265C61.3045 269.98 60.9874 268.336 60.9929 266.677C60.9929 263.884 62.4879 263.325 63.2385 261.645C63.9891 259.966 81.9095 255.136 81.9095 255.136L84.7165 256.438Z" fill="#92E3A9" stroke="#263238" stroke-linecap="round" stroke-linejoin="round"/>
<path d="M61.3839 269.827C61.52 270.398 61.7014 270.958 61.9264 271.5H102.826L103.015 270.01L102.826 267.966C102.643 265.916 100.404 263.865 97.0418 262.752V269.827H61.3839Z" fill="white" stroke="#263238" stroke-linecap="round" stroke-linejoin="round"/>
<path d="M94.7965 167.617C94.7965 167.617 96.1085 169.85 94.9857 170.762C93.8629 171.674 93.3016 172.07 93.3016 172.07C94.0786 173.628 94.2774 175.411 93.863 177.101C93.1186 179.711 89.7566 190.692 89.7566 195.906C89.7566 201.119 90.1287 213.968 88.0724 221.232C86.0161 228.496 81.9097 244.319 82.4711 247.86C83.0325 251.401 85.0888 253.074 85.461 254.005C85.7783 255.157 85.904 256.353 85.8331 257.545C85.8331 258.659 81.9097 263.69 75.3748 266.105C68.84 268.52 63.39 268.904 62.1285 268.526C60.8669 268.149 59.5171 265.923 59.7 264.061C59.8829 262.199 60.4632 261.841 60.4632 260.533C60.4632 259.225 57.4733 246.571 57.8455 239.496C58.2177 232.42 64.1974 221.616 64.1974 216.402C64.1974 211.188 62.3051 202.069 60.8354 196.667C59.3657 191.264 58.9431 190.151 58.9431 189.592C58.9431 189.032 56.8867 184.749 55.581 181.208C54.2753 177.667 52.4271 174.322 52.4271 170.598C52.452 168.107 52.6395 165.619 52.9885 163.152L54.6727 158.869C54.6727 158.869 93.3268 164.265 93.8882 164.265C94.4496 164.265 94.7965 167.617 94.7965 167.617Z" fill="#263238" stroke="#263238" stroke-linecap="round" stroke-linejoin="round"/>
<path d="M98.0952 150.479C98.0952 150.479 107.954 145.567 109.556 143.837C111.159 142.108 109.556 138.127 110.086 138.127C110.616 138.127 113.814 136.8 114.085 135.611C114.357 134.423 113.814 132.423 114.35 132.423C114.886 132.423 121.011 130.964 123.408 131.096C125.805 131.228 132.201 131.492 134.333 128.442C136.465 125.391 138.049 122.725 138.049 121.926C138.049 121.127 137.418 120.901 136.062 121.813C134.706 122.725 123.528 122.989 120.463 122.989C117.397 122.989 116.205 122.586 114.868 123.618C113.53 124.649 108.478 129.731 107.809 129.731C107.141 129.731 105.015 129.467 103.816 130.794C102.868 130.184 101.743 129.903 100.618 129.995C99.0161 130.259 91.6927 134.247 91.6927 134.247L98.0952 150.479Z" fill="#9E9E9E" stroke="#263238" stroke-linecap="round" stroke-linejoin="round"/>
<path d="M88.2615 103.933C88.4251 104.168 88.5767 104.412 88.7157 104.662C89.9284 106.863 90.7239 109.268 91.0622 111.757C91.8128 116.788 92.1849 126.096 93.8628 132.611C95.5407 139.127 101.71 148.994 100.801 157.189C99.8931 165.384 97.4393 167.988 93.1437 168.176C88.8481 168.365 58.7789 162.032 54.3004 160.73C49.8219 159.428 48.882 160.17 49.2542 155.887C49.6263 151.604 54.3004 136.146 54.4833 130.561C54.6662 124.976 50.5599 112.687 56.3757 103.751C62.1914 94.8137 68.5181 88.8516 72.0631 89.6C75.6081 90.3484 85.833 97.4174 88.2615 103.933Z" fill="white" stroke="#263238" stroke-linecap="round" stroke-linejoin="round"/>
<path d="M79.6701 49.1927C79.6701 49.1927 86.205 46.4003 91.4342 47.1424C96.6633 47.8846 101.892 51.9851 103.015 54.7774C104.138 57.5698 105.072 58.8716 105.072 60.7332C105.072 62.5948 105.072 63.1545 104.882 63.7143L104.699 64.274C104.699 64.274 106.592 68.7456 106.749 70.2298C106.907 71.714 106.749 72.4687 105.444 72.4687H104.138C104.138 72.4687 102.454 83.6382 100.984 84.9401C99.5144 86.2419 95.0107 86.4306 95.0107 86.4306C95.0107 86.4306 90.7151 88.3173 89.7815 94.2542C88.848 100.191 87.7252 107.103 87.7252 107.103C87.7252 107.103 78.2004 89.7827 77.0839 86.0595C75.9675 82.3364 75.3998 79.7264 75.3998 79.7264C76.4669 77.9747 77.1145 76.0011 77.2921 73.9592C77.4813 70.8147 73.3687 64.0853 74.4914 57.7585C75.6142 51.4316 79.6701 49.1927 79.6701 49.1927Z" fill="#999999" stroke="#263238" stroke-linecap="round" stroke-linejoin="round"/>
<path d="M100.959 84.9269C102.12 83.9207 103.387 76.9838 103.905 73.9147C102.687 72.9902 97.0166 72.0971 94.7963 73.1977C92.576 74.2983 90.1285 76.1788 89.7501 75.619C89.3716 75.0593 87.5865 66.6885 88.8796 65.2043C90.1727 63.72 93.3644 63.7074 92.6138 61.2861C91.8632 58.8648 88.6336 60.1792 88.4507 58.1416C88.2677 56.1039 90.343 54.2297 87.8893 53.6763C86.2024 53.3795 84.468 53.507 82.843 54.0474C82.288 54.0474 81.1652 53.2989 81.1652 51.4374C81.1659 50.9461 80.9989 50.4692 80.6917 50.0852C80.3844 49.7011 79.9552 49.4328 79.4747 49.3242C78.6484 49.8588 75.4188 52.2612 74.4285 57.7705C73.3057 64.0974 77.4184 70.8016 77.2291 73.9713C77.0771 75.8481 76.5244 77.6707 75.608 79.317C76.4713 79.6958 77.4358 79.7798 78.3519 79.556C80.2442 78.9963 80.0298 77.3234 80.5912 76.0153C81.1526 74.7071 83.0197 74.3424 82.0861 71.921C81.1526 69.4997 83.5811 66.8897 84.6975 67.0784C85.814 67.2671 86.9431 69.1287 86.3817 70.223C85.8203 71.3173 84.4894 76.7385 84.4894 79.5309C84.4894 82.3232 85.2337 84.7446 86.9179 85.6754C88.6021 86.6061 90.9359 87.4426 92.5949 88.191C93.2598 87.4743 94.0481 86.8822 94.9225 86.4426C94.9225 86.4426 99.4704 86.2477 100.959 84.9269Z" fill="#263238" stroke="#263238" stroke-linecap="round" stroke-linejoin="round"/>
<path d="M101.521 65.0161C101.521 65.7393 101.268 66.3242 100.959 66.3242C100.65 66.3242 100.404 65.7393 100.404 65.0161C100.404 64.2928 100.65 63.7142 100.959 63.7142C101.268 63.7142 101.521 64.2991 101.521 65.0161Z" fill="#263238"/>
<path d="M98.1584 61.6583C99.1102 61.1267 100.111 60.6886 101.148 60.3501C102.082 60.1677 103.577 60.9098 103.388 59.4193C103.198 57.9288 101.337 58.4885 99.0919 59.0483C96.8464 59.608 96.8527 60.9224 98.1584 61.6583Z" fill="white" stroke="#263238" stroke-linecap="round" stroke-linejoin="round"/>
<path d="M95.7297 64.645C96.3202 64.9859 96.9578 65.2381 97.6221 65.3934" stroke="#263238" stroke-linecap="round" stroke-linejoin="round"/>
<path d="M97.5969 66.1351C97.2763 66.3622 96.9081 66.5137 96.5202 66.578C96.1322 66.6423 95.7347 66.6177 95.3577 66.5062" stroke="#263238" stroke-linecap="round" stroke-linejoin="round"/>
<path d="M94.9918 57.7455C94.9918 57.7455 97.8871 55.4374 101.508 56.016" stroke="#263238" stroke-linecap="round" stroke-linejoin="round"/>
<path d="M96.5812 54.1113C96.5812 54.1113 100.202 53.105 101.798 54.1113" stroke="#263238" stroke-linecap="round" stroke-linejoin="round"/>
<path d="M83.0321 52.5442C82.4707 52.5442 81.3542 51.7958 81.3542 49.9342C81.3542 48.0726 79.1086 46.9594 77.4307 48.4436C75.7529 49.9279 76.125 50.865 74.4409 51.236C72.7567 51.6071 69.2117 50.4939 68.6503 54.0347C68.0889 57.5755 68.8395 58.5 68.0889 59.4307C67.3383 60.3615 63.4212 62.0407 63.6104 65.2042C63.7996 68.3676 66.0389 68.3487 65.2883 70.2355C64.5376 72.1222 62.6768 74.5184 65.4775 76.3799C68.2782 78.2415 72.9459 74.336 73.5073 75.8265C74.0687 77.317 76.6612 78.6189 78.5535 78.0591C80.4459 77.4994 80.2377 75.8265 80.7991 74.5184C81.3605 73.2102 83.2276 72.8454 82.294 70.4241C81.3605 68.0028 83.7827 65.3928 84.9055 65.5815C86.0283 65.7702 87.1447 67.6318 86.5896 68.7261C86.0346 69.8204 84.6973 75.2416 84.6973 78.034C84.6973 80.8263 85.4416 83.2477 87.1195 84.1784C88.7974 85.1092 91.4151 86.0652 93.0993 86.7884C94.7835 87.5117 100.006 89.7632 101.69 88.2727C103.375 86.7821 104.302 83.2414 104.302 79.8956C104.302 76.5497 105.235 73.38 104.119 72.4492C103.003 71.5184 97.1804 70.5625 94.9664 71.7008C92.7524 72.8392 90.2986 74.6819 89.9202 74.1221C89.5417 73.5624 88.236 67.6066 89.5417 66.1161C90.8474 64.6256 94.0265 62.764 93.2759 60.3427C92.5253 57.9214 88.7974 58.6698 88.6081 56.6195C88.4189 54.5693 90.5005 52.7077 88.0467 52.1542C86.3686 51.868 84.6454 52.002 83.0321 52.5442Z" fill="white" stroke="#263238" stroke-linecap="round" stroke-linejoin="round"/>
<path d="M96.4805 74.3306C97.0382 75.1632 97.8383 75.8055 98.7733 76.1709C99.7082 76.5363 100.733 76.6074 101.71 76.3745" stroke="#263238" stroke-linecap="round" stroke-linejoin="round"/>
<path d="M86.8801 68.1427C86.8801 68.1427 86.5899 65.5453 83.4045 65.1113C80.2191 64.6774 79.9289 69.8722 81.2346 72.3312C82.5403 74.7903 84.275 73.4821 84.275 73.4821" fill="#999999"/>
<path d="M86.8801 68.1427C86.8801 68.1427 86.5899 65.5453 83.4045 65.1113C80.2191 64.6774 79.9289 69.8722 81.2346 72.3312C82.5403 74.7903 84.275 73.4821 84.275 73.4821" stroke="#263238" stroke-linecap="round" stroke-linejoin="round"/>
<path d="M75.0025 77.8641C75.0025 77.8641 81.7266 93.5051 83.5937 97.6056C85.4608 101.706 88.2615 104.681 88.2615 108.775C88.2615 112.869 89.9457 121.812 89.9457 130.749C89.9457 139.686 92.1849 152.535 91.4343 157.56C90.6837 162.585 88.8481 166.314 88.8481 168.365C88.8481 170.415 89.031 173.396 88.0975 173.396C87.1639 173.396 73.722 172.465 63.8188 170.044C53.9156 167.622 48.1314 166.503 48.1314 165.012C48.1314 163.522 48.6927 160.73 48.6927 159.981C48.6927 159.233 46.4535 157.748 47.5763 152.723C48.6991 147.698 49.8155 132.051 50.1877 120.882C50.5598 109.712 55.0447 99.8383 58.0346 95.3667C61.0245 90.8951 66.2347 87.738 66.2347 87.738C66.2347 87.738 63.2511 84.1972 66.7961 81.9646C69.4215 80.389 72.1652 79.0181 75.0025 77.8641Z" fill="#92E3A9" stroke="#263238" stroke-linecap="round" stroke-linejoin="round"/>
<path d="M50.7239 159.913C61.9248 164.699 73.9689 167.215 86.1547 167.315" stroke="#263238" stroke-linecap="round" stroke-linejoin="round"/>
<path d="M54.9816 161.598L54.2183 166.711" stroke="#263238" stroke-linecap="round" stroke-linejoin="round"/>
<path d="M60.6207 163.9L59.8511 167.988" stroke="#263238" stroke-linecap="round" stroke-linejoin="round"/>
<path d="M66.7708 165.428L66.2598 169.516" stroke="#263238" stroke-linecap="round" stroke-linejoin="round"/>
<path d="M72.4093 166.454L72.1515 170.032" stroke="#263238" stroke-linecap="round" stroke-linejoin="round"/>
<path d="M78.8126 167.221V171.051" stroke="#263238" stroke-linecap="round" stroke-linejoin="round"/>
<path d="M83.5937 97.6056C81.7014 93.5051 75.0025 77.8641 75.0025 77.8641C72.1674 79.0184 69.4258 80.3893 66.8024 81.9646C63.2574 84.1972 66.241 87.738 66.241 87.738C66.241 87.738 72.593 97.0459 74.6493 101.329C76.7056 105.612 76.1442 104.681 78.0113 107.662C79.8785 110.643 80.812 113.058 81.3734 112.127C81.9348 111.196 86.6026 106.725 87.719 107.096C87.8515 107.14 87.9903 107.178 88.1416 107.215C87.5424 103.882 85.2148 101.165 83.5937 97.6056Z" fill="#92E3A9" stroke="#263238" stroke-linecap="round" stroke-linejoin="round"/>
<path d="M109.178 116.782H144.502C144.502 116.782 141.512 120.694 138.711 122.373C135.91 124.052 132.176 124.26 132.176 124.26H122.809C122.809 124.26 115.341 124.046 109.178 116.782Z" fill="#92E3A9" stroke="#263238" stroke-linecap="round" stroke-linejoin="round"/>
<path d="M108.055 126.467C109.631 125.088 110.958 123.45 111.979 121.625C112.497 120.548 113.254 119.602 114.193 118.86C115.131 118.118 116.227 117.599 117.397 117.342C119.289 116.971 125.427 116.411 126.55 115.851C127.672 115.291 128.442 117.901 127.855 118.832C127.269 119.763 124.865 120.505 123.37 120.719C122.403 120.896 121.536 121.427 120.942 122.209C121.785 122.859 122.732 123.363 123.743 123.7C125.427 124.26 128.417 124.442 129.722 123.7C131.028 122.958 135.696 119.599 136.074 121.813C136.453 124.027 134.39 124.958 133.267 126.279C132.145 127.599 130.113 130.002 129.35 130.19C128.587 130.379 122.626 130.379 118.892 130.75C115.158 131.121 110.692 133.731 110.692 133.731L107.33 126.467H108.055Z" fill="#999999" stroke="#263238" stroke-linecap="round" stroke-linejoin="round"/>
<path d="M101.148 129.26C101.148 129.26 107.122 125.348 108.055 126.468C108.989 127.587 113.474 132.423 112.351 134.474C111.228 136.524 103.949 139.876 103.949 139.876L101.148 129.26Z" fill="#92E3A9" stroke="#263238" stroke-linecap="round" stroke-linejoin="round"/>
<path d="M72.9461 101.519C72.9461 101.519 77.2417 106.173 78.9259 110.456C80.61 114.738 84.5272 126.807 85.0886 127.769C85.65 128.732 86.5835 130.379 86.5835 130.379C86.5835 130.379 96.2912 127.769 98.3475 127.587C100.404 127.405 102.454 129.26 103.76 131.681C105.065 134.103 109.367 141.36 107.5 143.228C105.633 145.096 89.3842 153.479 84.5272 155.328C79.6702 157.177 74.8132 156.071 72.5424 152.184C70.2716 148.297 60.7784 126.675 58.9113 121.644C57.0442 116.613 57.2271 112.518 57.9777 111.028" fill="#92E3A9"/>
<path d="M72.9461 101.519C72.9461 101.519 77.2417 106.173 78.9259 110.456C80.61 114.738 84.5272 126.807 85.0886 127.769C85.65 128.732 86.5835 130.379 86.5835 130.379C86.5835 130.379 96.2912 127.769 98.3475 127.587C100.404 127.405 102.454 129.26 103.76 131.681C105.065 134.103 109.367 141.36 107.5 143.228C105.633 145.096 89.3842 153.479 84.5272 155.328C79.6702 157.177 74.8132 156.071 72.5424 152.184C70.2716 148.297 60.7784 126.675 58.9113 121.644C57.0442 116.613 57.2271 112.518 57.9777 111.028" stroke="#263238" stroke-linecap="round" stroke-linejoin="round"/>
<path d="M79.6703 142.668C80.6039 136.706 86.6089 130.379 86.6089 130.379C86.6089 130.379 79.8848 133.731 77.6392 136.523" stroke="#263238" stroke-linecap="round" stroke-linejoin="round"/>
</svg>
