<svg width="25" height="24" viewBox="0 0 25 24" fill="none" xmlns="http://www.w3.org/2000/svg">
<path d="M12.7837 15.6357C15.0002 15.6357 16.7954 13.9095 16.7954 11.7784V6.47462C16.7954 4.34347 15.0002 2.61734 12.7837 2.61734C10.5673 2.61734 8.77202 4.34347 8.77202 6.47462V11.7784C8.77202 13.9095 10.5673 15.6357 12.7837 15.6357Z" stroke="#292D32" stroke-width="1.5" stroke-linecap="round" stroke-linejoin="round"/>
<path d="M5.11135 9.99438V11.6337C5.11135 15.7032 8.55138 19.0108 12.7837 19.0108C17.0161 19.0108 20.4561 15.7032 20.4561 11.6337V9.99438" stroke="#292D32" stroke-width="1.5" stroke-linecap="round" stroke-linejoin="round"/>
<path d="M11.3896 6.88927C12.2923 6.57105 13.2751 6.57105 14.1778 6.88927" stroke="#292D32" stroke-width="1.5" stroke-linecap="round" stroke-linejoin="round"/>
<path d="M11.9815 8.93386C12.513 8.79886 13.0646 8.79886 13.5962 8.93386" stroke="#292D32" stroke-width="1.5" stroke-linecap="round" stroke-linejoin="round"/>
<path d="M12.7837 19.0104V21.9034" stroke="#292D32" stroke-width="1.5" stroke-linecap="round" stroke-linejoin="round"/>
</svg>
